<svg enable-background="new 0 0 1244 548" viewBox="0 0 1244 548" xmlns="http://www.w3.org/2000/svg"><g fill="#1c3664"><path d="m809 323.4c1.4 3.2 2.5 6.7 3.3 10.6s1.4 7.7 1.6 11.5c-2.8 1.1-5.8 2-9 2.6-3.2.7-6.3 1.2-9.3 1.5s-5.8.5-8.4.6-4.7.2-6.2.2c-9.3 0-17.4-1.2-24.3-3.7-6.9-2.4-12.7-5.9-17.4-10.3-4.6-4.4-8.1-9.7-10.4-15.9-2.3-6.1-3.4-13-3.4-20.6 0-11.8 1.8-22.9 5.5-33.3s8.9-19.4 15.5-27.1c6.7-7.7 14.7-13.8 24.1-18.3 9.4-4.4 19.8-6.7 31.3-6.7 6 0 11.3.3 15.9 1s9.4 2.1 14.4 4.3c-.8 3.8-1.7 7.3-3 10.6-1.2 3.3-2.9 6.9-5.1 10.8-4.3-1.6-8.1-2.6-11.3-3.1s-6.3-.7-9.3-.7c-8.5 0-15.8 1.8-21.9 5.3s-11.1 8.1-15 13.8-6.7 12.1-8.6 19.3c-1.8 7.2-2.8 14.4-2.8 21.7 0 10 2.7 17.4 8.1 22.3s13.1 7.3 23.2 7.3c1.9 0 3.7-.1 5.3-.2 1.7-.1 3.3-.3 5-.5s3.4-.6 5.3-1.2c2.3-.4 4.4-1.1 6.9-1.8z"/><path d="m848.4 250.1c1.4-6.5 2.4-12.1 3-16.9s.9-8.9.9-12.2c0-1.3 0-2.5-.1-3.4s-.2-1.9-.3-3c2.2-.4 4.6-.6 7.4-.8s5.2-.3 7.2-.3c3.7 0 7.8.4 12.2 1.1.6 1.8 1 4.1 1 6.9 0 2.6-.3 5.5-.8 8.8s-1.1 6.9-1.9 10.8l-14.7 73.5c-.4 2.1-.6 3.8-.6 5.1 0 1.9.3 3.5.9 4.6s1.3 1.9 2.2 2.6c.9.6 1.9 1 3.1 1.2s2.3.3 3.4.3c.5 0 1.5-.1 2.9-.3s2.7-.5 3.8-.8c.6 2.1 1.2 4.3 1.6 6.8.4 2.4.7 4.9.7 7.5 0 1 0 1.9-.1 2.7-.1.9-.2 1.8-.3 2.7-1.9.7-4.4 1.3-7.4 1.7-3.1.4-6.4.6-10.1.6-8.6 0-15.5-2-20.4-6.1-5-4.1-7.4-10.5-7.4-19.3 0-1.7.1-3.5.4-5.4s.6-3.9 1-5.9z"/><path d="m982.3 307.3c-1.4 7.7-2.4 14.5-3.1 20.4-.6 5.9-1 10.5-1 13.8v3.4c0 .9.1 1.9.2 3-4.2.7-8.3 1.1-12.4 1.1-3.6 0-7.5-.4-11.8-1.1-.3-1-.5-2.1-.8-3.5-.3-1.3-.4-3.3-.4-6 0-1.1 0-2.3 0-3.5s.1-2.6.4-4.2c-3.7 5.6-8.4 10.3-14.1 14.1s-12.4 5.7-20 5.7c-8.4 0-14.7-2.6-18.9-7.7s-6.3-11.9-6.3-20.3c0-9.1 1.4-18 4.3-26.5s7.1-16.1 12.8-22.7 12.7-11.8 21.1-15.8 18.2-5.9 29.4-5.9c5.6 0 10.8.4 15.6 1.1s9.6 1.8 14.3 3.1zm-19.6-34c-1.1-.2-2.3-.4-3.3-.5-1.1-.1-2.1-.1-3.1-.1-6.1 0-11.3 1.5-15.5 4.4-4.3 2.9-7.8 6.6-10.6 11s-4.8 9.1-6.1 14.2-1.9 9.7-1.9 13.8c0 9 3.1 13.5 9.3 13.5 6.1 0 11.8-3.6 17-10.7s9-17.1 11.4-30.1z"/><path d="m1030.4 306.6c-2-.7-4.1-1.7-6.1-2.8-2-1.2-3.9-2.6-5.6-4.4s-3.1-3.9-4.2-6.5-1.6-5.6-1.6-9.1c0-5.1 1-9.7 3.1-13.6 2.1-4 5-7.3 8.8-10 3.7-2.7 8.1-4.8 13.2-6.3 5-1.5 10.5-2.2 16.3-2.2 2 0 4.3.1 6.7.3s4.9.5 7.3.8c2.5.4 4.9.9 7.2 1.6 2.4.7 4.5 1.5 6.4 2.5-.3 3.2-.9 6.3-1.8 9.4-1 3.1-2.5 6.2-4.7 9.4-2.7-1.3-5.9-2.4-9.7-3.3s-7.4-1.3-10.9-1.3c-1.4 0-3 .1-4.7.4-1.7.2-3.3.7-4.9 1.3-1.5.6-2.8 1.5-3.8 2.7s-1.5 2.7-1.5 4.6c0 3.7 2.4 6.5 7.2 8.6l7.4 3.1c2.4 1 4.8 2.1 7.1 3.4s4.3 2.8 6.1 4.7c1.8 1.8 3.2 4 4.3 6.4s1.6 5.3 1.6 8.6c0 6.1-1.3 11.4-3.8 15.8s-6 8.2-10.3 11.1c-4.3 3-9.4 5.2-15.4 6.7s-12.2 2.2-18.8 2.2c-4.1 0-8.6-.4-13.5-1.2-5-.8-9.4-2-13.4-3.6.4-7.1 2.3-13.6 5.7-19.7 3.9 1.7 8 2.9 12.1 3.6s8.1 1 11.9 1c1.9 0 3.9-.2 6.1-.5 2.2-.4 4.1-1 5.9-1.8 1.8-.9 3.3-2 4.5-3.6 1.2-1.5 1.8-3.4 1.8-5.6 0-2.4-.9-4.4-2.7-5.9s-4.3-2.9-7.4-4.1z"/><path d="m1117 306.6c-2-.7-4.1-1.7-6.1-2.8-2-1.2-3.9-2.6-5.6-4.4s-3.1-3.9-4.2-6.5-1.6-5.6-1.6-9.1c0-5.1 1-9.7 3.1-13.6 2.1-4 5-7.3 8.8-10 3.7-2.7 8.1-4.8 13.2-6.3 5-1.5 10.5-2.2 16.3-2.2 2 0 4.3.1 6.7.3s4.9.5 7.3.8c2.5.4 4.9.9 7.2 1.6 2.4.7 4.5 1.5 6.4 2.5-.3 3.2-.9 6.3-1.8 9.4-1 3.1-2.5 6.2-4.7 9.4-2.7-1.3-5.9-2.4-9.7-3.3s-7.4-1.3-10.9-1.3c-1.4 0-3 .1-4.7.4-1.7.2-3.3.7-4.9 1.3-1.5.6-2.8 1.5-3.8 2.7s-1.5 2.7-1.5 4.6c0 3.7 2.4 6.5 7.2 8.6l7.4 3.1c2.4 1 4.8 2.1 7.1 3.4s4.3 2.8 6.1 4.7c1.8 1.8 3.2 4 4.3 6.4s1.6 5.3 1.6 8.6c0 6.1-1.3 11.4-3.8 15.8s-6 8.2-10.3 11.1c-4.3 3-9.4 5.2-15.4 6.7s-12.2 2.2-18.8 2.2c-4.1 0-8.6-.4-13.5-1.2-5-.8-9.4-2-13.4-3.6.4-7.1 2.3-13.6 5.7-19.7 3.9 1.7 8 2.9 12.1 3.6s8.1 1 11.9 1c1.9 0 3.9-.2 6.1-.5 2.2-.4 4.1-1 5.9-1.8 1.8-.9 3.3-2 4.5-3.6 1.2-1.5 1.8-3.4 1.8-5.6 0-2.4-.9-4.4-2.7-5.9s-4.3-2.9-7.4-4.1z"/><path d="m627.4 484.5c4.8 1.7 9.8 3.2 14.8 4.4s9.9 1.8 14.6 1.8c3.9 0 7.6-.4 11-1.3s6.3-2.1 8.8-3.8 4.4-3.8 5.8-6.2 2.1-5.3 2.1-8.6c0-2.4-.6-4.6-1.7-6.4s-2.6-3.5-4.4-4.9c-1.8-1.5-3.9-2.8-6.3-4.1s-4.8-2.6-7.2-4.1c-8.1-4.6-14.6-9.4-19.4-14.3s-7.2-10.7-7.2-17.4c0-6.6 1.2-12.5 3.6-17.6 2.4-5.2 5.8-9.5 10.3-13.1 4.4-3.5 9.8-6.2 16.1-8.1s13.4-2.8 21.3-2.8c7 0 13 .5 18.1 1.5s10.4 2.5 16 4.6c-.5 3.3-1.4 6.8-2.7 10.4-1.3 3.7-3.1 7.2-5.3 10.8-3.7-1.7-7.5-3.1-11.3-4.2-3.9-1.1-8.9-1.6-15.2-1.6-2.3 0-4.7.2-7.3.5-2.6.4-5 1.1-7.1 2.1s-3.8 2.5-5.2 4.3-2.1 4.2-2.1 7.1c0 4.1 1.6 7.6 4.7 10.2 3.1 2.7 7.1 5.4 11.9 8 4.3 2.3 8.3 4.6 12 6.9s6.9 4.8 9.7 7.5 5 5.7 6.6 9c1.6 3.4 2.4 7.2 2.4 11.6 0 6.2-1.2 12.2-3.5 17.9-2.4 5.7-6 10.7-10.9 15s-11.1 7.7-18.6 10.2c-7.5 2.6-16.4 3.8-26.7 3.8-12 0-23.7-2.1-35.3-6.4.5-3.7 1.4-7.3 2.8-11.1 1.2-3.7 2.9-7.6 4.8-11.6z"/><path d="m768.5 513.6c-13.1 0-22.7-3.3-28.9-9.9s-9.3-15.6-9.3-27c0-7.3 1.1-14.6 3.4-22s5.7-14 10.3-19.9 10.3-10.7 17.3-14.4c6.9-3.7 15-5.6 24.3-5.6 13.2 0 22.9 3.4 29.1 10 6.2 6.7 9.3 15.8 9.3 27.2 0 7.6-1.1 15-3.3 22.3s-5.6 13.9-10.2 19.7-10.4 10.6-17.4 14.2-15.2 5.4-24.6 5.4zm2.5-19.8c4.8 0 8.9-1.5 12.2-4.4s6-6.5 8.1-10.9c2.1-4.3 3.6-8.9 4.5-13.7s1.3-9.2 1.3-13.1c0-11.2-4.8-16.8-14.3-16.8-4.8 0-8.8 1.5-12 4.6-3.2 3-5.8 6.8-7.8 11.1-2 4.4-3.5 9-4.3 13.9s-1.2 9.2-1.2 13c0 10.9 4.5 16.3 13.5 16.3z"/><path d="m855.1 413.3c1.4-6.5 2.4-12.1 3-16.9s.9-8.9.9-12.2c0-1.3 0-2.5-.1-3.4s-.2-1.9-.3-3c2.2-.4 4.6-.6 7.4-.8s5.2-.3 7.2-.3c3.7 0 7.8.4 12.2 1.1.6 1.8 1 4.1 1 6.9 0 2.6-.3 5.5-.8 8.8s-1.1 6.9-1.9 10.8l-14.7 73.5c-.4 2.1-.6 3.8-.6 5.1 0 2 .3 3.5.9 4.6s1.3 2 2.2 2.6 1.9 1 3.1 1.2c1.1.2 2.3.3 3.4.3.5 0 1.5-.1 2.9-.3s2.7-.5 3.8-.8c.6 2.1 1.2 4.3 1.6 6.8.4 2.4.7 4.9.7 7.5 0 1 0 1.9-.1 2.7-.1.9-.2 1.8-.3 2.7-1.9.7-4.4 1.3-7.4 1.7-3.1.4-6.4.6-10.1.6-8.6 0-15.5-2-20.4-6.1-5-4.1-7.4-10.5-7.4-19.3 0-1.7.1-3.5.4-5.4s.6-3.9 1-5.9z"/><path d="m902.8 416.9c4.7-.7 9.4-1.1 14.1-1.1 5.1 0 10 .4 14.9 1.1l7.4 69.2 21.6-44.6c2.8-5.7 4.5-10.3 5.2-13.8s1-6.4 1-8.9v-2c2.2-.4 4.5-.6 7.2-.8 2.6-.2 5.3-.3 8.1-.3 5.7 0 10.8.4 15.3 1.1v.9c0 2.9-.8 6.4-2.3 10.3-1.5 4-4.1 9.2-7.8 15.6l-38.5 67.8c-2.5.4-5.1.6-7.8.7s-4.9.2-6.7.2-4.2 0-7.2-.1-5.6-.3-7.7-.8z"/><path d="m1029.4 475.6c.8 5.8 2.8 10.2 6.1 13.1s8.1 4.3 14.5 4.3c5.1 0 9.6-.5 13.4-1.6 3.9-1 8-2.4 12.3-4.1 2 2.4 3.4 5.4 4.1 8.9s1 7.2 1 11.1c-2.2 1-4.7 1.9-7.5 2.6-2.9.8-5.8 1.5-8.9 2s-6.1 1-9.2 1.3-5.8.5-8.2.5c-7.8 0-14.4-.9-19.9-2.7s-10.1-4.4-13.7-7.8c-3.6-3.3-6.3-7.4-8-12.2s-2.6-10.1-2.6-16c0-7.4 1.3-14.7 4-21.9s6.5-13.6 11.3-19.3c4.9-5.7 10.9-10.2 17.9-13.7 7.1-3.5 15-5.2 23.7-5.2 4.2 0 8.1.5 11.7 1.5s6.8 2.5 9.4 4.5c2.7 2 4.8 4.5 6.3 7.4s2.3 6.3 2.3 10.2c0 5.5-1.3 10.2-4 14.3-2.7 4-6.2 7.4-10.7 10.2s-9.5 5.1-15.2 6.9-11.5 3.1-17.6 3.9zm10.9-18.7c4.8-.7 8.8-1.7 11.8-2.8 3.1-1.2 5.5-2.4 7.2-3.8 1.8-1.4 3-2.8 3.6-4.3s1-2.9 1-4.4c0-2.3-.8-4.2-2.4-5.7s-3.7-2.2-6.4-2.2c-3.3 0-6.3.7-9.1 2.1-2.7 1.4-5.1 3.3-7.2 5.6-2 2.3-3.8 5-5.2 7.9-1.5 3-2.6 6-3.3 9z"/><path d="m1111.3 457.5c1.4-7.7 2.4-14.5 3.1-20.4s1-10.5 1-13.8c0-1.3 0-2.5 0-3.4s-.1-1.9-.2-3c4.2-.7 8.4-1.1 12.6-1.1 1.9 0 3.8.1 5.7.3s3.9.5 6.1.8c.3 1 .5 2.1.8 3.5.3 1.3.4 3.4.4 6 0 1.1 0 2.2-.1 3.3s-.2 2.4-.5 4c1.3-2.2 2.9-4.4 4.8-6.5s4-4 6.4-5.8c2.4-1.7 5-3.1 7.8-4.1 2.9-1 6-1.6 9.4-1.6 2.7 0 5 .3 6.9.9.1.5.2 1 .2 1.5v1.6c0 3.4-.4 6.9-1.3 10.6s-2.1 6.7-3.6 9.1c-.8-.1-1.6-.2-2.5-.4-.9-.1-2-.2-3.4-.2-5.2 0-9.5.9-12.9 2.6s-6.1 4.1-8.3 7.2-3.9 6.9-5.2 11.2c-1.3 4.4-2.4 9.3-3.4 14.6l-7.1 36.7c-5 .7-9.6 1.1-13.9 1.1-4.5 0-8.8-.4-13.2-1.1z"/></g><path d="m864.3 34c108.7 4.4 207.8 20.8 284.6 47.9l95.2-25c-99.2-32.6-223.8-52-358.4-57.2z" fill="#3b2584"/><path d="m512.7 548.3 71.2-109.7c-177.2-9.2-311.6-48.2-375.9-105.2l-208 55.1c73 85.7 257 146.3 512.7 159.8z" fill="#fbd90b"/><path d="m649 342.8c-105.2-5.6-189-27-235.7-59.2l-182.4 48.4c62.8 54 191.6 90.9 360.5 99.7z" fill="#fbd90b"/><path d="m567.2 93.8-52.9-27.8c-108.2 22.5-200 56.8-258.5 99.5l152.4 5.9c35.4-29.9 95.7-54.8 170.1-71.7z" fill="#e7181c"/><path d="m837.1 77.4c76.2 3.4 144.4 15.5 195.3 35l104.6-27.4c-74-26.4-170-42.4-275.5-46.7z" fill="#3b2584"/><path d="m702.4 260.3c-45.5-2.8-83.4-11.5-107.9-24.7l-161.1 42.7c44.5 29.9 123.2 49.9 221.6 55.1z" fill="#fbd90b"/><path d="m586.2 103.8c-70.4 16.2-127 39.9-160 68.2l153.1 5.9c15-14.7 42.4-27.4 78-36.7z" fill="#e7181c"/><path d="m424.6 271.8 160.5-42.1c-19.4-13.7-23.2-29.6-11.6-45.3l-154.3-5.9c-31.7 31.3-31.1 64.4 5.4 93.3z" fill="#fca613"/><path d="m806 127.3c38.7 2.1 72.8 8.6 97.9 18.9l115.5-30.3c-48.2-18.7-112.9-30.3-185.4-33.5z" fill="#3b2584"/><path d="m943.5 191.8 156.1 6c3.7-29.8-21.7-56.9-69.7-77.7l-115.7 30.7c22.8 11.5 33.3 25.8 29.3 41z" fill="#1d2ed2"/><path d="m744.2 195.9-131.7 34.9c21.9 11.5 55.2 19.1 95 21.6z" fill="#fbd90b"/><path d="m603 225 131.3-34.4-142.4-5.5c-9.7 13.9-6.1 27.9 11.1 39.9z" fill="#fca613"/><path d="m597.5 178.5 141.2 5.4-72.5-38.1c-31.5 8.3-55.6 19.7-68.7 32.7z" fill="#e7181c"/><path d="m772.8 180.5 116.7-30.6c-22.3-9.1-52.6-15-87-16.9z" fill="#3b2584"/><path d="m899.8 154.6-117 31 142.2 5.4c3.7-13.4-5.3-26.1-25.2-36.4z" fill="#1d2ed2"/></svg>