<svg width="142" height="70" viewBox="0 0 142 70" xmlns="http://www.w3.org/2000/svg" xmlns:xlink="http://www.w3.org/1999/xlink"><title>Page 1</title><defs><path id="a" d="M0 69.657h141.263V0H0z"/></defs><g fill="none" fill-rule="evenodd"><path d="M24.113 6.452C23.577 3.48 25.535.628 28.49.09c2.955-.544 5.785 1.424 6.33 4.4.536 2.97-1.422 5.818-4.379 6.36-2.957.54-5.787-1.429-6.327-4.4zm-12.308 5.395c-.523-2.873 1.371-5.63 4.232-6.155 2.858-.526 5.604 1.389 6.121 4.259.522 2.88-1.375 5.633-4.232 6.156-2.858.526-5.603-1.383-6.121-4.26M3.45 21.366c-.488-2.69 1.284-5.26 3.95-5.748 2.67-.489 5.23 1.288 5.715 3.975.488 2.687-1.281 5.259-3.952 5.745-2.669.491-5.226-1.286-5.713-3.972M.073 32.255c-.439-2.419 1.156-4.74 3.562-5.182a4.434 4.434 0 0 1 5.153 3.585c.439 2.417-1.156 4.737-3.562 5.18-2.408.44-4.713-1.163-5.153-3.583m.852 10.61c-.38-2.104 1.006-4.13 3.106-4.517a3.866 3.866 0 0 1 4.49 3.126 3.88 3.88 0 0 1-3.107 4.514c-2.096.387-4.106-1.008-4.489-3.123m3.89 9.153c-.337-1.863.894-3.657 2.752-3.998a3.42 3.42 0 0 1 3.98 2.767c.338 1.87-.894 3.662-2.753 4.004a3.427 3.427 0 0 1-3.979-2.773m5.819 7.012a3.091 3.091 0 0 1 2.472-3.594c1.667-.309 3.265.805 3.57 2.485a3.083 3.083 0 0 1-2.47 3.589 3.072 3.072 0 0 1-3.572-2.48m6.634 4.611c-.267-1.48.71-2.91 2.188-3.175a2.715 2.715 0 0 1 3.164 2.193 2.74 2.74 0 0 1-2.188 3.184 2.727 2.727 0 0 1-3.164-2.202m6.84 2.788a2.65 2.65 0 0 1 2.115-3.08 2.633 2.633 0 0 1 3.061 2.13 2.646 2.646 0 0 1-2.118 3.076 2.633 2.633 0 0 1-3.058-2.126m7.078 1.165a2.515 2.515 0 0 1 2.012-2.922 2.498 2.498 0 0 1 2.905 2.021c.248 1.363-.652 2.677-2.008 2.922a2.501 2.501 0 0 1-2.91-2.021M48.307 5.159C47.785 2.282 45.043.376 42.185.896c-2.86.525-4.758 3.284-4.235 6.16.522 2.873 3.259 4.78 6.122 4.26 2.86-.528 4.753-3.28 4.235-6.157m11.154 5.934c-.487-2.681-3.047-4.461-5.713-3.97-2.67.482-4.441 3.06-3.954 5.741.488 2.685 3.049 4.464 5.717 3.978 2.669-.489 4.436-3.065 3.95-5.75m6.981 8.998c-.441-2.423-2.745-4.026-5.153-3.586-2.403.441-4 2.763-3.564 5.18.443 2.422 2.748 4.026 5.15 3.586 2.409-.441 4.002-2.763 3.567-5.18m-9.228 39.919c-.319-1.74-1.973-2.898-3.702-2.579-1.733.312-2.875 1.985-2.562 3.719a3.184 3.184 0 0 0 3.706 2.577c1.728-.317 2.873-1.992 2.558-3.717m-6.874 3.903c-.275-1.504-1.701-2.506-3.198-2.23a2.769 2.769 0 0 0-2.212 3.215c.272 1.498 1.706 2.5 3.198 2.224a2.761 2.761 0 0 0 2.211-3.209m-12.21 3.127c-.24-1.338.643-2.63 1.977-2.873a2.456 2.456 0 0 1 2.857 1.986 2.472 2.472 0 0 1-1.977 2.873 2.454 2.454 0 0 1-2.857-1.986m.533-32.316c-.027-1.737-1.159-2.828-3.009-2.828-1.749 0-2.835 1.116-3.057 2.828h6.066zm-6.066 2.23c.197 1.763 1.53 2.827 3.181 2.827 1.478 0 2.442-.693 3.181-1.612l2.119 1.612c-1.38 1.712-3.131 2.381-5.003 2.381-3.576 0-6.436-2.503-6.436-6.25 0-3.743 2.86-6.246 6.436-6.246 3.302 0 5.546 2.33 5.546 6.471v.818h-9.024z" fill="#49B649"/><path d="M43.763 29.962h2.81v1.91h.05c.541-1.19 1.651-2.206 3.623-2.206 3.181 0 4.315 2.256 4.315 4.684v7.514h-2.958v-6.026c0-1.313-.1-3.496-2.17-3.496-1.947 0-2.712 1.44-2.712 3.025v6.497h-2.958V29.962zm20.757 6.57h-.616c-1.629 0-4.439.124-4.439 1.836 0 1.091 1.109 1.562 2.07 1.562 2.023 0 2.984-1.067 2.984-2.727v-.67zm.172 3.696h-.075c-.837 1.338-2.218 1.932-3.795 1.932-2.195 0-4.315-1.213-4.315-3.57 0-3.867 4.487-4.14 7.445-4.14h.74v-.322c0-1.464-1.134-2.233-2.713-2.233a4.64 4.64 0 0 0-3.155 1.241l-1.552-1.563c1.304-1.339 3.155-1.908 5.027-1.908 5.054 0 5.054 3.668 5.054 5.353v6.846h-2.661v-1.636zm11.56-7.885c-2.17 0-3.474 1.71-3.474 3.569 0 1.86 1.305 3.572 3.474 3.572 2.17 0 3.477-1.712 3.477-3.572 0-1.859-1.307-3.569-3.477-3.569zm-6.335-9.223h2.958v8.355h.075c.616-.77 1.798-1.81 4.018-1.81 3.376 0 5.72 2.727 5.72 6.247s-2.195 6.249-5.844 6.249c-1.653 0-3.204-.644-4.066-2.083h-.05v1.786h-2.811V23.12z" fill="#959496"/><mask id="b" fill="#fff"><use xlink:href="#a"/></mask><path fill="#959496" mask="url(#b)" d="M84.388 41.863h2.957V23.12h-2.957zm14.172-7.14c-.026-1.737-1.157-2.828-3.006-2.828-1.752 0-2.837 1.116-3.058 2.828h6.063zm-6.064 2.23c.196 1.763 1.529 2.827 3.18 2.827 1.48 0 2.44-.693 3.18-1.612l2.121 1.612c-1.381 1.712-3.13 2.381-5.004 2.381-3.575 0-6.434-2.503-6.434-6.25 0-3.743 2.86-6.246 6.434-6.246 3.302 0 5.546 2.33 5.546 6.471v.818h-9.023zm11.857-12.643h1.776v7.61h9.515v-7.61h1.774v17.553h-1.774v-8.305h-9.515v8.305h-1.776zm17.969 7.76h3.159c3.177 0 4.264-1.388 4.264-3.074 0-1.685-1.087-3.05-4.264-3.05h-3.159v6.124zm0 9.794h-1.773V24.31h5.375c3.55 0 5.742 1.536 5.742 4.686 0 2.43-1.602 4.29-4.46 4.536l5.028 8.332h-2.17l-4.782-8.157h-2.96v8.157zm14.926-18.104h.656c.53 0 1.025-.025 1.025-.63 0-.534-.452-.596-.858-.596h-.823v1.226zm-.53-1.708h1.397c.91 0 1.344.34 1.344 1.103 0 .686-.443.98-1.01 1.042l1.097 1.689h-.574l-1.043-1.644h-.681v1.644h-.53v-3.834zm1.229 4.722c1.547 0 2.785-1.227 2.785-2.845 0-1.592-1.238-2.81-2.785-2.81-1.547 0-2.786 1.218-2.786 2.847 0 1.58 1.239 2.808 2.786 2.808zm0-6.133c1.803 0 3.316 1.421 3.316 3.288a3.295 3.295 0 0 1-3.316 3.325c-1.804 0-3.316-1.421-3.316-3.288a3.295 3.295 0 0 1 3.316-3.325z"/></g></svg>