<svg xmlns="http://www.w3.org/2000/svg" viewBox="0 0 85.16 31.24"><defs><style>.cls-1{fill:#2d2c34;}.cls-2{fill:#f16439;}</style></defs><title>Expert360_logo_fullcolour_RGB</title><path class="cls-1" d="M79.1,20.72l3.22-4.58c.37-.5.37-.39,0-.9l-3.23-4.62h2.29a1.35,1.35,0,0,1,.89.5l2.78,4.16a.7.7,0,0,1,0,.75l-2.8,4.2a1.34,1.34,0,0,1-.88.49Z" transform="translate(0 -0.05)"/><polygon class="cls-1" points="0 11.26 7.06 11.26 7.06 12.45 1.28 12.45 1.28 15.41 6.63 15.41 6.63 16.54 1.28 16.54 1.28 19.84 7.16 19.84 7.16 21 0 21 0 11.26"/><polygon class="cls-1" points="9.74 20.99 8.16 20.99 11.61 16 8.38 11.26 10.02 11.26 12.48 14.98 14.91 11.26 16.48 11.26 13.25 16 16.64 20.99 15 20.99 12.41 16.99 9.74 20.99"/><path class="cls-1" d="M18.1,11.31h4.36a2.93,2.93,0,0,1,2.08.73,2.67,2.67,0,0,1,.8,2.06,3,3,0,0,1-.71,2,2.66,2.66,0,0,1-2.17.85h-3V21H18.1Zm5.12,1.34A2.79,2.79,0,0,0,22,12.44H19.42v3.37H22a2.51,2.51,0,0,0,1.43-.37A1.53,1.53,0,0,0,24,14.1a1.46,1.46,0,0,0-.79-1.45" transform="translate(0 -0.05)"/><polygon class="cls-1" points="27.15 11.26 34.22 11.26 34.22 12.45 28.44 12.45 28.44 15.41 33.78 15.41 33.78 16.54 28.44 16.54 28.44 19.84 34.32 19.84 34.32 21 27.15 21 27.15 11.26"/><path class="cls-1" d="M36.24,11.31h4.42a4.43,4.43,0,0,1,1.8.32,2.31,2.31,0,0,1,1.35,2.3,2.57,2.57,0,0,1-.36,1.43,2.6,2.6,0,0,1-1,.9,2,2,0,0,1,.86.61,2.18,2.18,0,0,1,.32,1.22l.05,1.31a3.76,3.76,0,0,0,.09.83.79.79,0,0,0,.42.59V21H42.57a1.08,1.08,0,0,1-.11-.32,6,6,0,0,1-.07-.77l-.08-1.62a1.37,1.37,0,0,0-.68-1.28,2.8,2.8,0,0,0-1.16-.18H37.56V21H36.24Zm4.28,4.46A2.5,2.5,0,0,0,42,15.4a1.54,1.54,0,0,0,.52-1.34,1.45,1.45,0,0,0-.73-1.42,2.36,2.36,0,0,0-1.05-.2H37.56v3.33Z" transform="translate(0 -0.05)"/><polygon class="cls-1" points="52.72 11.26 52.72 12.42 49.44 12.42 49.44 21 48.1 21 48.1 12.42 44.83 12.42 44.83 11.26 52.72 11.26"/><path class="cls-2" d="M56.56,17.88a2.31,2.31,0,0,0,.2,1,1.35,1.35,0,0,0,1.34.75,1.43,1.43,0,0,0,1-.41,1.49,1.49,0,0,0,.45-1.17,1.34,1.34,0,0,0-.82-1.36,4.16,4.16,0,0,0-1.48-.19V15.07a3.82,3.82,0,0,0,1.38-.19,1.18,1.18,0,0,0,.67-1.21,1.41,1.41,0,0,0-.34-1,1.29,1.29,0,0,0-1-.36A1.21,1.21,0,0,0,57,12.8,1.89,1.89,0,0,0,56.65,14H54.76A5,5,0,0,1,55,12.56a3.55,3.55,0,0,1,.78-1.12,2.74,2.74,0,0,1,.94-.55,4,4,0,0,1,1.34-.19,3.54,3.54,0,0,1,2.38.76,2.53,2.53,0,0,1,.91,2A2.24,2.24,0,0,1,60.83,15a2,2,0,0,1-.71.54,1.41,1.41,0,0,1,.79.47,2.53,2.53,0,0,1,.78,2,3.33,3.33,0,0,1-.91,2.3,3.44,3.44,0,0,1-2.68,1,3.24,3.24,0,0,1-3-1.43,4.28,4.28,0,0,1-.5-2Z" transform="translate(0 -0.05)"/><path class="cls-2" d="M67.24,13.34a1,1,0,0,0-.19-.55,1.12,1.12,0,0,0-1-.48,1.46,1.46,0,0,0-1.4,1.11,6.63,6.63,0,0,0-.31,1.8,2.17,2.17,0,0,1,.87-.65,2.9,2.9,0,0,1,1.14-.21,2.93,2.93,0,0,1,2.24.93,3.3,3.3,0,0,1,.88,2.38,4,4,0,0,1-.86,2.54A3.15,3.15,0,0,1,66,21.31a3.08,3.08,0,0,1-2.87-1.62,6.62,6.62,0,0,1-.71-3.28,14.23,14.23,0,0,1,.1-1.92,5.71,5.71,0,0,1,.68-2.19,3.7,3.7,0,0,1,1.16-1.2,3.1,3.1,0,0,1,1.7-.45,3.38,3.38,0,0,1,2.29.73,2.8,2.8,0,0,1,1,2Zm-2.4,5.8a1.43,1.43,0,0,0,1.14.52,1.25,1.25,0,0,0,1.06-.5,2.11,2.11,0,0,0,.39-1.32A2,2,0,0,0,67,16.46a1.48,1.48,0,0,0-2-.17,1.8,1.8,0,0,0-.59,1.49,2.06,2.06,0,0,0,.44,1.36" transform="translate(0 -0.05)"/><path class="cls-2" d="M76.4,12.06A8.12,8.12,0,0,1,77.19,16a8.06,8.06,0,0,1-.79,3.92,3.45,3.45,0,0,1-5.52,0A8,8,0,0,1,70.09,16a8,8,0,0,1,.79-3.94,3.45,3.45,0,0,1,5.52,0m-4,6.65a1.22,1.22,0,0,0,2.37,0A9.91,9.91,0,0,0,75.1,16a9.88,9.88,0,0,0-.28-2.76,1.23,1.23,0,0,0-2.37,0,9.38,9.38,0,0,0-.3,2.76,9.41,9.41,0,0,0,.3,2.71" transform="translate(0 -0.05)"/><path class="cls-2" d="M80.13,23.48H78a1.23,1.23,0,0,0-.87.38A14.38,14.38,0,0,1,66,29h-.1a14.36,14.36,0,0,1-11.07-5.17,1.23,1.23,0,0,0-.87-.38H51.79a16.72,16.72,0,0,0,14.08,7.8h.19A16.7,16.7,0,0,0,80.13,23.48Z" transform="translate(0 -0.05)"/><path class="cls-2" d="M80.13,7.86H78a1.24,1.24,0,0,1-.87-.39A14.45,14.45,0,0,0,66,2.3h-.1A14.42,14.42,0,0,0,54.84,7.47a1.24,1.24,0,0,1-.87.39H51.79A16.73,16.73,0,0,1,65.87.05h.19A16.71,16.71,0,0,1,80.13,7.86Z" transform="translate(0 -0.05)"/></svg>