<?xml version="1.0" encoding="utf-8"?>
<!-- Generator: Adobe Illustrator 23.0.1, SVG Export Plug-In . SVG Version: 6.00 Build 0)  -->
<svg version="1.1" id="Layer_1" xmlns="http://www.w3.org/2000/svg" xmlns:xlink="http://www.w3.org/1999/xlink" x="0px" y="0px"
	 viewBox="0 0 196 87.9" style="enable-background:new 0 0 196 87.9;" xml:space="preserve">
<style type="text/css">
	.st0{fill-rule:evenodd;clip-rule:evenodd;}
	.st1{fill:#FF6600;}
</style>
<title>laava-logo-black</title>
<desc>Created with Sketch.</desc>
<g id="Page-1">
	<g id="laava-logo-black">
		<g id="logo">
			<path class="st0" d="M191.3,37.4c-0.6,0-1.2-0.1-1.8-0.3s-1.1-0.6-1.5-1s-0.8-0.9-1-1.5s-0.4-1.2-0.4-1.9s0.1-1.4,0.4-1.9
				s0.6-1.1,1-1.5s0.9-0.8,1.5-1s1.2-0.3,1.8-0.3s1.2,0.1,1.8,0.3c0.6,0.2,1.1,0.6,1.5,1s0.8,0.9,1,1.5s0.4,1.2,0.4,1.9
				s-0.1,1.3-0.4,1.9c-0.2,0.6-0.6,1.1-1,1.5s-0.9,0.8-1.5,1C192.5,37.3,191.9,37.4,191.3,37.4z M191.3,36.4c0.5,0,1-0.1,1.4-0.3
				s0.8-0.4,1.1-0.8c0.3-0.3,0.6-0.7,0.7-1.2c0.2-0.5,0.3-1,0.3-1.5c0-0.6-0.1-1.1-0.3-1.5c-0.2-0.5-0.4-0.9-0.7-1.2
				c-0.3-0.3-0.7-0.6-1.1-0.8c-0.4-0.2-0.9-0.3-1.4-0.3s-1,0.1-1.4,0.3c-0.4,0.2-0.8,0.4-1.1,0.8c-0.3,0.3-0.6,0.7-0.7,1.2
				c-0.2,0.5-0.3,1-0.3,1.5c0,0.6,0.1,1.1,0.3,1.5c0.2,0.5,0.4,0.8,0.7,1.2c0.3,0.3,0.7,0.6,1.1,0.8
				C190.3,36.3,190.8,36.4,191.3,36.4z M189.5,35v-4.8h2c0.5,0,1,0.1,1.4,0.4s0.6,0.6,0.6,1.2c0,0.3-0.1,0.5-0.2,0.8
				c-0.2,0.2-0.4,0.4-0.7,0.6l1.1,1.9h-1.3l-0.8-1.6h-0.8V35H189.5z M190.7,32.6h0.6c0.3,0,0.5-0.1,0.6-0.2c0.2-0.1,0.2-0.3,0.2-0.5
				s-0.1-0.4-0.2-0.5c-0.1-0.1-0.4-0.2-0.7-0.2h-0.6L190.7,32.6L190.7,32.6z"/>
			<path id="Shape" d="M0,21h10.3v42.9c0,3.1,1.4,4.7,4.2,4.7c0.7,0,1.3-0.1,2-0.3c0.7-0.2,1.5-0.4,2.1-0.7l1.4,8.3
				c-1.5,0.7-3.2,1.3-4.8,1.5c-1.7,0.3-3.3,0.5-5,0.6c-3.2,0-5.7-0.9-7.5-2.6S0,71.2,0,68.1V21z"/>
			<path d="M35.7,78c-1.9,0-3.7-0.3-5.4-0.9c-1.6-0.6-3.1-1.5-4.4-2.7c-1.2-1.2-2.2-2.5-2.9-4.1c-0.7-1.6-1-3.3-1-5.1
				s0.4-3.7,1.3-5.3c0.8-1.6,2.1-3.1,3.5-4.1c1.6-1.2,3.5-2.1,5.4-2.7c2.2-0.7,4.6-1,6.9-0.9c1.8,0,3.5,0.2,5.3,0.5
				C46,53,47.5,53.4,49,54v-2.3c0-2.7-0.8-4.7-2.3-6.2S43,43.2,40,43.2c-2.1,0-4.3,0.4-6.3,1.2c-2.2,0.9-4.3,2-6.3,3.4l-3.2-6.6
				c5-3.4,10.9-5.2,16.8-5.2c5.8,0,10.3,1.4,13.5,4.3c3.2,2.9,4.8,7,4.8,12.4v12.6c0,1.1,0.2,1.9,0.6,2.3c0.4,0.5,1.1,0.7,2.1,0.8
				v8.8c-0.9,0.2-1.8,0.3-2.7,0.4s-1.6,0.1-2.2,0.1c-2,0-3.4-0.5-4.4-1.3c-1-0.9-1.7-2.1-1.9-3.5l-0.2-2.2c-1.7,2.3-4,4.2-6.5,5.4
				C41.3,77.4,38.5,78,35.7,78z M38.6,70.4c1.7,0,3.4-0.3,5-0.9c1.4-0.5,2.6-1.3,3.6-2.5c1.1-0.9,1.7-1.9,1.7-2.9v-4.7
				c-1.3-0.5-2.6-0.9-4-1.1c-1.4-0.3-2.8-0.4-4.1-0.4c-2.6,0-4.8,0.6-6.5,1.8s-2.5,2.8-2.5,4.6c0,1.7,0.7,3.3,2,4.4
				C35,69.8,36.8,70.5,38.6,70.4z"/>
			<path d="M79.7,78c-1.9,0-3.7-0.3-5.4-0.9c-1.6-0.6-3.1-1.5-4.4-2.7c-1.2-1.2-2.2-2.5-2.9-4.1c-0.7-1.6-1-3.3-1-5.1
				s0.4-3.7,1.3-5.3c0.8-1.6,2.1-3.1,3.5-4.1c1.6-1.2,3.5-2.1,5.4-2.7c2.2-0.7,4.6-1,6.9-0.9c1.8,0,3.5,0.2,5.3,0.5
				C90,53,91.5,53.4,93,54v-2.3c0-2.7-0.8-4.7-2.3-6.2S87,43.2,84,43.2c-2.1,0-4.3,0.4-6.3,1.2c-2.2,0.9-4.3,2-6.3,3.4l-3.2-6.6
				c5-3.4,10.9-5.2,16.8-5.2c5.8,0,10.3,1.4,13.5,4.3c3.2,2.9,4.8,7,4.8,12.4v12.6c0,1.1,0.2,1.9,0.6,2.3c0.4,0.5,1.1,0.7,2.1,0.8
				v8.8c-0.9,0.2-1.8,0.3-2.7,0.4c-0.9,0.1-1.6,0.1-2.2,0.1c-2,0-3.4-0.5-4.4-1.3c-1-0.9-1.7-2.1-1.9-3.5l-0.2-2.2
				c-1.7,2.3-4,4.2-6.5,5.4C85.3,77.4,82.5,78,79.7,78z M82.6,70.4c1.7,0,3.4-0.3,5-0.9c1.4-0.5,2.6-1.3,3.6-2.5
				c1.1-0.9,1.7-1.9,1.7-2.9v-4.7c-1.3-0.5-2.6-0.9-4-1.1c-1.4-0.3-2.8-0.4-4.1-0.4c-2.6,0-4.8,0.6-6.5,1.8s-2.5,2.8-2.5,4.6
				c0,1.7,0.7,3.3,2,4.4C79,69.8,80.8,70.5,82.6,70.4z"/>
			<path d="M164.7,78c-1.8,0-3.7-0.3-5.4-0.9c-1.6-0.6-3.1-1.5-4.4-2.7c-1.2-1.2-2.2-2.5-2.9-4.1s-1-3.3-1-5.1s0.4-3.7,1.3-5.3
				c0.8-1.6,2.1-3.1,3.5-4.1c1.6-1.2,3.5-2.1,5.4-2.7c2.2-0.7,4.6-1,6.9-0.9c1.8,0,3.5,0.2,5.3,0.5c1.6,0.3,3.1,0.7,4.6,1.3v-2.3
				c0-2.7-0.8-4.7-2.3-6.2s-3.8-2.2-6.7-2.2c-2.1,0-4.3,0.4-6.3,1.2c-2.2,0.9-4.3,2-6.3,3.4l-3.2-6.6c4.9-3.4,10.8-5.2,16.7-5.2
				c5.8,0,10.3,1.4,13.5,4.3c3.2,2.9,4.8,7,4.8,12.4v12.6c0,1.1,0.2,1.9,0.6,2.3c0.4,0.5,1.1,0.7,2.1,0.8v8.8
				c-0.9,0.2-1.8,0.3-2.7,0.4s-1.6,0.1-2.2,0.1c-2,0-3.4-0.5-4.4-1.3c-1-0.9-1.7-2.1-1.9-3.5l-0.2-2.2c-1.7,2.3-4,4.2-6.5,5.4
				C170.3,77.4,167.5,78,164.7,78z M167.6,70.4c1.7,0,3.4-0.3,5-0.9c1.4-0.5,2.6-1.3,3.6-2.5c1.1-0.9,1.7-1.9,1.7-2.9v-4.7
				c-1.3-0.5-2.6-0.9-4-1.1c-1.4-0.3-2.8-0.4-4.1-0.4c-2.6,0-4.8,0.6-6.5,1.8s-2.5,2.8-2.5,4.6c0,1.7,0.7,3.3,2,4.4
				C164,69.8,165.8,70.5,167.6,70.4z"/>
			<g>
				<path class="st1" d="M172.5,6c-1.9-5.3-8.4-7.6-13.3-4.8c-2.2,1.3-3.8,3.4-4.4,5.9c-0.2,1-0.3,2-0.4,3c-0.2,1.3-0.4,2.6-0.6,3.9
					c-0.6,3.3-1.3,6.6-2.3,9.9s-2.2,6.6-3.6,9.8c-1.3,3-2.6,6-4,8.9c-0.9,1.9-3.2,5.9-4.2,7.8c-2.3,4.2-3.4,6.1-5.8,10.3
					c-1.2,2-2.6,4.7-5.1,5.2c-1,0.3-2,0-2.8-0.7c-1.6-1.7-2.5-4.3-2.8-6.7c-0.3-2.7-0.3-5.3-0.1-8c0.1-2.1,0.4-4.1,0.5-6.2
					c0.1-2.4-0.6-4.9-2-6.8c-3.2-4.1-9.4-4.8-13.4-1.4c-2,1.7-3.2,4.2-3.3,6.8c-0.1,2.7,1,5.3,2.9,7.1c0.6,0.6,1.2,1,1.8,1.5
					c0.6,0.5,1.1,1,1.6,1.5c1.1,1.1,2.2,2.3,3.1,3.6c0.8,1,1.4,2.1,1.9,3.3c0.3,1,0.4,2.1,0.5,3.1c0.1,2.4-0.1,4.8-0.5,7.1
					c-0.3,1.7-0.7,3.4-1,5.1c-0.8,5.2,2.2,10.3,7.2,12.1c5,1.8,10.6-0.3,13.2-4.9c0.9-1.6,1.2-3.3,1.7-5.1l0.7-2.5
					c0.5-2,1.1-4,1.8-6c1.3-3.7,2.7-7.3,4.1-10.9c2.4-6.1,4.9-12.3,7.6-18.3c2.3-5.1,4.6-10.2,8.2-14.5c2-2.3,4.1-4.4,6.4-6.3
					c1.9-1.6,4.1-3,5.4-5.2C173.1,11.4,173.4,8.6,172.5,6z"/>
			</g>
		</g>
	</g>
</g>
</svg>
