<?xml version="1.0" encoding="UTF-8"?>
<svg width="187px" height="226px" viewBox="0 0 187 226" version="1.1" xmlns="http://www.w3.org/2000/svg" xmlns:xlink="http://www.w3.org/1999/xlink">
    <title>Svenska Alarm</title>
    <g id="CMYK" stroke="none" stroke-width="1" fill="none" fill-rule="evenodd">
        <path d="M186.6,216.982 C186.6,221.962 182.563,226 177.584,226 L9.017,226 C4.037,226 0,221.962 0,216.982 L0,9.508 C0,4.528 4.037,0.49 9.017,0.49 L177.584,0.49 C182.563,0.49 186.6,4.528 186.6,9.508 L186.6,216.982" id="Fill-1" fill="#1E8FC2"></path>
        <path d="M110.577,65.764 C115.48,65.764 119.449,61.795 119.449,56.892 C119.449,51.992 115.48,48.024 110.577,48.024 C105.678,48.024 101.707,51.992 101.707,56.892 C101.707,61.795 105.678,65.764 110.577,65.764 Z M110.965,44.431 C117.849,44.431 123.429,50.011 123.429,56.892 C123.429,63.773 117.849,69.353 110.965,69.353 C104.081,69.353 98.504,63.773 98.504,56.892 C98.504,50.011 104.081,44.431 110.965,44.431 Z" id="Fill-2" fill="#FFFFFE"></path>
        <path d="M71.322,65.764 C66.419,65.764 62.448,61.795 62.448,56.892 C62.448,51.992 66.419,48.024 71.322,48.024 C76.22,48.024 80.19,51.992 80.19,56.892 C80.19,61.795 76.22,65.764 71.322,65.764 Z M70.934,44.431 C64.049,44.431 58.471,50.011 58.471,56.892 C58.471,63.773 64.049,69.353 70.934,69.353 C77.817,69.353 83.396,63.773 83.396,56.892 C83.396,50.011 77.817,44.431 70.934,44.431 Z" id="Fill-3" fill="#FFFFFE"></path>
        <path d="M127.339,69.486 C123.188,72.449 119.2,73.373 115.38,73.57 C103.458,74.185 94.883,64.602 95.488,56.207 C96.02,48.75 101.152,42.473 110.242,39.971 C119.499,37.419 128.955,35.823 128.955,35.823 C128.345,37.573 127.557,38.963 126.287,40.925 C129.04,44.718 130.203,50.051 130.128,55.849 C130.061,60.8 128.523,65.596 126.35,68.102 C126.735,68.88 126.72,68.842 127.339,69.486 Z M121.753,104.242 C119.13,108.617 111.867,109.482 108.474,104.62 C106.674,102.037 106.045,99.329 106.045,99.329 C106.045,99.329 109.048,101.8 111.344,102.811 C113.578,103.795 117.186,103.712 119.722,101.827 C121.701,100.357 124.241,97.774 124.241,97.774 C124.241,97.774 123.273,101.718 121.753,104.242 Z M110.005,119.164 C107.348,123.513 100.079,124.324 96.726,119.44 C94.943,116.84 94.335,114.128 94.335,114.128 C94.335,114.128 97.317,116.62 99.604,117.65 C101.833,118.653 105.441,118.598 107.992,116.732 C109.984,115.275 112.542,112.711 112.542,112.711 C112.542,112.711 111.545,116.65 110.005,119.164 Z M83.602,106.247 C82.028,103.52 81.631,100.77 81.631,100.77 C81.631,100.77 84.414,103.484 86.611,104.688 C88.757,105.861 92.358,106.083 95.044,104.422 C97.144,103.126 99.894,100.77 99.894,100.77 C99.894,100.77 98.593,104.618 96.866,107.006 C93.876,111.137 86.566,111.382 83.602,106.247 Z M83.742,120.037 C80.393,123.883 73.09,123.466 70.598,118.087 C69.276,115.229 69.131,112.451 69.131,112.451 C69.131,112.451 71.656,115.409 73.738,116.807 C75.767,118.166 79.334,118.711 82.159,117.299 C84.368,116.196 87.319,114.099 87.319,114.099 C87.319,114.099 85.676,117.815 83.742,120.037 Z M58.768,103.855 C57.316,101.057 57.046,98.29 57.046,98.29 C57.046,98.29 59.702,101.128 61.849,102.431 C63.936,103.697 67.525,104.084 70.282,102.544 C72.439,101.342 75.291,99.113 75.291,99.113 C75.291,99.113 73.819,102.897 71.984,105.204 C68.812,109.199 61.498,109.113 58.768,103.855 Z M51.772,55.849 C51.695,50.051 52.859,44.718 55.612,40.925 C54.342,38.963 53.554,37.573 52.944,35.823 C52.944,35.823 62.4,37.419 71.656,39.971 C80.745,42.473 85.876,48.75 86.41,56.207 C87.016,64.602 78.441,74.185 66.519,73.57 C62.699,73.373 58.711,72.449 54.559,69.486 C55.177,68.842 55.165,68.88 55.548,68.102 C53.375,65.596 51.839,60.8 51.772,55.849 Z M88.135,64.064 L93.765,64.064 C93.765,64.064 94.31,65.334 94.506,65.78 C94.5,66.236 94.491,66.504 94.408,66.897 C93.929,69.044 92.575,71.997 90.951,74.458 L90.949,74.458 C89.324,71.997 87.971,69.044 87.492,66.897 C87.407,66.504 87.402,66.236 87.393,65.78 C87.591,65.334 88.135,64.064 88.135,64.064 Z M135.958,31.677 L45.941,31.677 C47.347,35.327 48.35,36.97 50.444,39.971 C49.324,43.529 48.629,50.993 48.629,57.963 L48.629,85.961 C48.629,114.156 65.563,131.722 90.949,131.722 L90.951,131.722 C116.336,131.722 133.268,114.156 133.268,85.961 L133.268,57.963 C133.268,50.993 132.574,43.529 131.455,39.971 C133.549,36.97 134.554,35.327 135.958,31.677 Z" id="Fill-4" fill="#FFFFFE"></path>
        <path d="M95.932,71.218 C95.928,71.218 95.924,71.22 95.921,71.22 C95.918,71.22 95.914,71.218 95.911,71.218 L95.932,71.218" id="Fill-5" fill="#FFFFFE"></path>
        <path d="M31.737,155.775 C30.767,154.845 29.83,154.575 29.062,154.575 C28.008,154.575 27.256,155.132 27.256,155.942 C27.256,158.156 32.19,158.122 32.19,161.788 C32.19,163.597 30.835,164.916 28.996,164.916 C27.758,164.916 26.754,164.579 25.802,163.852 L25.802,161.754 C26.637,162.836 27.69,163.43 28.811,163.43 C30.083,163.43 30.668,162.618 30.668,161.975 C30.668,159.593 25.734,159.323 25.734,156.164 C25.734,154.288 27.106,153.087 29.196,153.087 C30.066,153.087 30.934,153.357 31.737,153.899 L31.737,155.775" id="Fill-6" fill="#FFFFFE"></path>
        <polyline id="Fill-7" fill="#FFFFFE" points="47.822 164.865 47.487 164.865 42.555 153.239 44.194 153.239 47.621 161.332 51.032 153.239 52.654 153.239 47.822 164.865"></polyline>
        <polyline id="Fill-8" fill="#FFFFFE" points="71.38 154.727 66.548 154.727 66.548 158.208 71.214 158.208 71.214 159.693 66.548 159.693 66.548 163.278 71.53 163.278 71.53 164.764 64.91 164.764 64.91 153.239 71.38 153.239 71.38 154.727"></polyline>
        <polyline id="Fill-9" fill="#FFFFFE" points="95.157 164.764 93.751 164.764 86.128 155.894 86.128 164.764 84.589 164.764 84.589 153.239 85.892 153.239 93.618 162.161 93.618 153.239 95.157 153.239 95.157 164.764"></polyline>
        <path d="M113.999,155.775 C113.03,154.845 112.093,154.575 111.324,154.575 C110.271,154.575 109.519,155.132 109.519,155.942 C109.519,158.156 114.451,158.122 114.451,161.788 C114.451,163.597 113.097,164.916 111.258,164.916 C110.02,164.916 109.017,164.579 108.063,163.852 L108.063,161.754 C108.9,162.836 109.953,163.43 111.073,163.43 C112.344,163.43 112.93,162.618 112.93,161.975 C112.93,159.593 107.996,159.323 107.996,156.164 C107.996,154.288 109.368,153.087 111.459,153.087 C112.328,153.087 113.197,153.357 113.999,153.899 L113.999,155.775" id="Fill-10" fill="#FFFFFE"></path>
        <polyline id="Fill-11" fill="#FFFFFE" points="136.605 164.764 134.348 164.764 128.546 159.068 128.546 164.764 126.908 164.764 126.908 153.239 128.546 153.239 128.546 158.511 133.345 153.239 135.384 153.239 130.419 158.696 136.605 164.764"></polyline>
        <path d="M150.031,159.88 L153.576,159.88 L151.735,155.708 L150.031,159.88 Z M157.438,164.764 L155.766,164.764 L154.243,161.367 L149.396,161.367 L147.958,164.764 L146.285,164.764 L151.183,153.172 L152.338,153.172 L157.438,164.764 Z" id="Fill-12" fill="#FFFFFE"></path>
        <path d="M34.679,178.391 L34.617,178.391 L32.119,185.87 L37.146,185.87 L34.679,178.391 Z M30.453,190.545 L28.85,194.626 L22.435,194.626 L31.379,171.13 L37.978,171.13 L46.736,194.626 L40.291,194.626 L38.781,190.545 L30.453,190.545 Z" id="Fill-13" fill="#FFFFFE"></path>
        <polyline id="Fill-14" fill="#FFFFFE" points="59.282 189.453 66.53 189.453 66.53 194.626 53.237 194.626 53.237 171.13 59.282 171.13 59.282 189.453"></polyline>
        <path d="M84.503,178.391 L84.443,178.391 L81.944,185.87 L86.971,185.87 L84.503,178.391 Z M80.279,190.545 L78.674,194.626 L72.26,194.626 L81.204,171.13 L87.805,171.13 L96.563,194.626 L90.117,194.626 L88.606,190.545 L80.279,190.545 Z" id="Fill-15" fill="#FFFFFE"></path>
        <path d="M108.799,181.663 L109.385,181.663 C111.359,181.663 113.579,181.288 113.579,178.734 C113.579,176.178 111.359,175.804 109.385,175.804 L108.799,175.804 L108.799,181.663 Z M122.091,194.626 L114.566,194.626 L108.861,185.589 L108.799,185.589 L108.799,194.626 L102.755,194.626 L102.755,171.13 L111.791,171.13 C116.386,171.13 119.87,173.342 119.87,178.36 C119.87,181.6 118.082,184.404 114.783,184.997 L122.091,194.626 Z" id="Fill-16" fill="#FFFFFE"></path>
        <polyline id="Fill-17" fill="#FFFFFE" points="131.059 171.13 137.013 171.13 141.731 183.689 146.727 171.13 152.741 171.13 156.257 194.626 150.212 194.626 148.516 181.102 148.454 181.102 142.872 194.626 140.467 194.626 135.131 181.102 135.07 181.102 133.127 194.626 127.112 194.626 131.059 171.13"></polyline>
        <path d="M159.427,177.17 C159.56,177.17 159.686,177.165 159.805,177.157 C159.924,177.148 160.03,177.124 160.123,177.083 C160.216,177.043 160.29,176.981 160.345,176.897 C160.4,176.813 160.428,176.696 160.428,176.546 C160.428,176.418 160.403,176.317 160.354,176.242 C160.304,176.167 160.24,176.109 160.162,176.069 C160.084,176.028 159.994,176.001 159.892,175.986 C159.791,175.972 159.691,175.965 159.592,175.965 L158.808,175.965 L158.808,177.17 L159.427,177.17 Z M159.688,175.488 C160.141,175.488 160.476,175.577 160.693,175.756 C160.911,175.936 161.02,176.207 161.02,176.572 C161.02,176.913 160.924,177.163 160.733,177.322 C160.541,177.481 160.303,177.575 160.019,177.604 L161.107,179.277 L160.471,179.277 L159.435,177.647 L158.808,177.647 L158.808,179.277 L158.216,179.277 L158.216,175.488 L159.688,175.488 Z M157.002,178.475 C157.138,178.813 157.327,179.107 157.567,179.355 C157.808,179.604 158.093,179.799 158.421,179.941 C158.749,180.082 159.104,180.153 159.487,180.153 C159.865,180.153 160.216,180.082 160.541,179.941 C160.866,179.799 161.149,179.604 161.39,179.355 C161.631,179.107 161.819,178.813 161.956,178.475 C162.092,178.137 162.16,177.768 162.16,177.369 C162.16,176.982 162.092,176.621 161.956,176.285 C161.819,175.95 161.631,175.66 161.39,175.414 C161.149,175.168 160.866,174.975 160.541,174.833 C160.216,174.691 159.865,174.62 159.487,174.62 C159.104,174.62 158.749,174.691 158.421,174.833 C158.093,174.975 157.808,175.168 157.567,175.414 C157.327,175.66 157.138,175.95 157.002,176.285 C156.865,176.621 156.797,176.982 156.797,177.369 C156.797,177.768 156.865,178.137 157.002,178.475 Z M156.466,176.095 C156.64,175.702 156.877,175.36 157.176,175.071 C157.475,174.782 157.823,174.555 158.221,174.391 C158.618,174.226 159.04,174.143 159.487,174.143 C159.934,174.143 160.355,174.226 160.75,174.391 C161.145,174.555 161.49,174.782 161.786,175.071 C162.082,175.36 162.317,175.702 162.492,176.095 C162.665,176.488 162.753,176.913 162.753,177.369 C162.753,177.838 162.665,178.27 162.492,178.666 C162.317,179.062 162.082,179.406 161.786,179.698 C161.49,179.99 161.145,180.217 160.75,180.378 C160.355,180.54 159.934,180.621 159.487,180.621 C159.04,180.621 158.618,180.54 158.221,180.378 C157.823,180.217 157.475,179.99 157.176,179.698 C156.877,179.406 156.64,179.062 156.466,178.666 C156.292,178.27 156.205,177.838 156.205,177.369 C156.205,176.913 156.292,176.488 156.466,176.095 Z" id="Fill-18" fill="#FFFFFE"></path>
    </g>
</svg>