<?xml version="1.0" encoding="UTF-8"?>
<svg width="187px" height="76px" viewBox="0 0 187 76" version="1.1" xmlns="http://www.w3.org/2000/svg" xmlns:xlink="http://www.w3.org/1999/xlink">
    <!-- Generator: Sketch 52.6 (67491) - http://www.bohemiancoding.com/sketch -->
    <title>CMYK</title>
    <desc>Created with Sketch.</desc>
    <g id="CMYK" stroke="none" stroke-width="1" fill="none" fill-rule="evenodd">
        <path d="M187,84.7624584 C187,89.8636956 182.954346,94 177.964673,94 L9.03632905,94 C4.0456538,94 0,89.8636956 0,84.7624584 L0,-127.762458 C0,-132.863696 4.0456538,-137 9.03632905,-137 L177.964673,-137 C182.954346,-137 187,-132.863696 187,-127.762458 L187,84.7624584" id="Fill-1" fill="#1E8FC2"></path>
        <path d="M31.5789963,18.7268577 C30.6775093,17.7834136 29.8066914,17.5095105 29.0929368,17.5095105 C28.1133829,17.5095105 27.4144981,18.0745625 27.4144981,18.8962719 C27.4144981,21.1422775 32,21.1077859 32,24.8267816 C32,26.6619325 30.7407063,28 29.0315985,28 C27.8810409,28 26.9479554,27.6581283 26.063197,26.9206188 L26.063197,24.7922901 C26.8392193,25.8899315 27.8178439,26.4925184 28.8596654,26.4925184 C30.0418216,26.4925184 30.5855019,25.6687801 30.5855019,25.0164849 C30.5855019,22.6000507 26,22.3261476 26,19.1214811 C26,17.2183617 27.2750929,16 29.2174721,16 C30.0260223,16 30.8327138,16.2739031 31.5789963,16.8237383 L31.5789963,18.7268577" id="Fill-6" fill="#FFFFFE"></path>
        <polyline id="Fill-7" fill="#FFFFFE" points="48.2153679 28 47.8836518 28 43 16 44.622933 16 48.0163383 24.3533459 51.3939004 16 53 16 48.2153679 28"></polyline>
        <polyline id="Fill-8" fill="#FFFFFE" points="71.8413897 17.5493275 66.7320242 17.5493275 66.7320242 21.1737961 71.665861 21.1737961 71.665861 22.72 66.7320242 22.72 66.7320242 26.4527549 72 26.4527549 72 28 65 28 65 16 71.8413897 16 71.8413897 17.5493275"></polyline>
        <polyline id="Fill-9" fill="#FFFFFE" points="95 28 93.5365254 28 85.6019114 18.7644252 85.6019114 28 84 28 84 16 85.3562642 16 93.3980886 25.289718 93.3980886 16 95 16 95 28"></polyline>
        <path d="M113.579861,18.7268577 C112.679163,17.7834136 111.808211,17.5095105 111.093416,17.5095105 C110.11464,17.5095105 109.415647,18.0745625 109.415647,18.8962719 C109.415647,21.1422775 114,21.1077859 114,24.8267816 C114,26.6619325 112.741441,28 111.032068,28 C109.881332,28 108.949032,27.6581283 108.062277,26.9206188 L108.062277,24.7922901 C108.840279,25.8899315 109.819055,26.4925184 110.860108,26.4925184 C112.041518,26.4925184 112.586212,25.6687801 112.586212,25.0164849 C112.586212,22.6000507 108,22.3261476 108,19.1214811 C108,17.2183617 109.27529,16 111.2189,16 C112.026646,16 112.834392,16.2739031 113.579861,16.8237383 L113.579861,18.7268577" id="Fill-10" fill="#FFFFFE"></path>
        <polyline id="Fill-11" fill="#FFFFFE" points="137 28 134.672476 28 128.689182 22.0692408 128.689182 28 127 28 127 16 128.689182 16 128.689182 21.4892842 133.638136 16 135.740848 16 130.620707 21.6819089 137 28"></polyline>
        <path d="M149.694611,22.9440994 L153.19098,22.9440994 L151.375235,18.6252588 L149.694611,22.9440994 Z M157,28 L155.350937,28 L153.84883,24.4834369 L149.068322,24.4834369 L147.650049,28 L146,28 L150.830808,16 L151.969963,16 L157,28 Z" id="Fill-12" fill="#FFFFFE"></path>
        <path d="M35.0923419,41.1077205 L35.0311098,41.1077205 L32.5640509,48.428839 L37.5287848,48.428839 L35.0923419,41.1077205 Z M30.9186865,53.0051498 L29.3355417,57 L23,57 L31.8332167,34 L38.3504794,34 L47,57 L40.6348298,57 L39.1435332,53.0051498 L30.9186865,53.0051498 Z" id="Fill-13" fill="#FFFFFE"></path>
        <polyline id="Fill-14" fill="#FFFFFE" points="58.9117581 51.9362019 66 51.9362019 66 57 53 57 53 34 58.9117581 34 58.9117581 51.9362019"></polyline>
        <path d="M84.0903592,41.1077205 L84.0311073,41.1077205 L81.5632638,48.428839 L86.5275892,48.428839 L84.0903592,41.1077205 Z M79.9190223,53.0051498 L78.3340328,57 L72,57 L80.8324898,34 L87.3511912,34 L96,57 L89.6343661,57 L88.1422047,53.0051498 L79.9190223,53.0051498 Z" id="Fill-15" fill="#FFFFFE"></path>
        <path d="M108.938974,44.3106486 L109.514791,44.3106486 C111.454489,44.3106486 113.635912,43.9435649 113.635912,41.4434797 C113.635912,38.9414368 111.454489,38.575332 109.514791,38.575332 L108.938974,38.575332 L108.938974,44.3106486 Z M122,57 L114.605761,57 L108.999897,48.1537709 L108.938974,48.1537709 L108.938974,57 L103,57 L103,34 L111.878982,34 C116.394135,34 119.817594,36.1653047 119.817594,41.0773749 C119.817594,44.2489785 118.060664,46.9937862 114.81899,47.574268 L122,57 Z" id="Fill-16" fill="#FFFFFE"></path>
        <polyline id="Fill-17" fill="#FFFFFE" points="130.927363 34 136.851741 34 141.546269 46.2938798 146.517413 34 152.501493 34 156 57 149.985075 57 148.297512 43.7614913 148.235821 43.7614913 142.681592 57 140.288557 57 134.979104 43.7614913 134.918408 43.7614913 132.985075 57 127 57 130.927363 34"></polyline>
    </g>
</svg>